<svg xmlns:rdf="http://www.w3.org/1999/02/22-rdf-syntax-ns#" xmlns="http://www.w3.org/2000/svg" height="67" width="327" version="1.1" xmlns:cc="http://creativecommons.org/ns#" xmlns:dc="http://purl.org/dc/elements/1.1/" viewBox="0 0 327.13735 67.114983">
	<defs>
		<linearGradient id="color">
			<stop stop-color="#4c5a52"/>
		</linearGradient>
	</defs>


 <g transform="translate(-0.00164,-60.114417)">

  <path fill="#54b948" d="m170,82.3c-1.65-1.97-4.1-3.05-6.89-3.05h-15.1c-5.76,0-11.3,4.68-12.3,10.4l0.007-0.0046c-0.0152,0.0554-0.0244,0.109-0.033,0.154l-2.3,13.1c-0.113,0.629-0.165,1.25-0.165,1.85,0,2.14,0.685,4.11,2,5.68,1.65,1.97,4.1,3.05,6.89,3.05h15.1c5.76,0,11.3-4.68,12.3-10.4,0-0.002,2.33-13.2,2.33-13.2,0.504-2.85-0.149-5.53-1.83-7.53zm-5.96,7.38-2.33,13.2c-0.272,1.53-1.74,2.78-3.26,2.78h-15.1c-0.697,0-1.31-0.263-1.71-0.744-0.416-0.496-0.576-1.16-0.447-1.88l2.33-13.2c0.272-1.53,1.73-2.78,3.26-2.78h15.1c0.7,0,1.3,0.265,1.71,0.744,0.416,0.495,0.573,1.16,0.451,1.88zm161-7.38c-1.65-1.97-4.1-3.05-6.89-3.05h-15.1c-5.75,0-11.3,4.68-12.3,10.4l-2.33,13.2c-0.503,2.85,0.148,5.52,1.83,7.53,1.65,1.97,4.1,3.05,6.89,3.05h23.7l1.37-7.81h-23.8c-0.699,0-1.3-0.263-1.71-0.744-0.413-0.496-0.57-1.16-0.444-1.88l2.33-13.2c0.27-1.53,1.73-2.78,3.27-2.78h15.1c0.703,0,1.3,0.265,1.71,0.744,0.414,0.495,0.574,1.16,0.448,1.88-0.271,1.53-1.73,2.78-3.26,2.78h-13.9l-1.38,7.8h14.1c5.76,0,11.3-4.68,12.3-10.4,0.502-2.85-0.15-5.53-1.84-7.53zm-84-3.05-6.04,34.2,7.82,0,6.04-34.2zm37.2,0-15.1,0c-5.76,0-11.3,4.68-12.3,10.4l0.0117-0.0086c-0.0244,0.0828-0.0411,0.173-0.0569,0.27l-4.15,23.5h7.82l4.17-23.6c0.27-1.53,1.73-2.78,3.26-2.78h15.1c0.697,0,1.31,0.265,1.71,0.744,0.417,0.495,0.577,1.16,0.447,1.88l-4.2,23.8h7.82l4.17-23.6c0.501-2.85-0.149-5.53-1.84-7.53-1.65-1.97-4.1-3.05-6.89-3.05zm-56.6,25.7c-0.414-0.496-0.576-1.16-0.448-1.88l7.53-42.7h-7.82l-7.5,42.5c-0.504,2.85,0.147,5.52,1.83,7.53,1.65,1.97,4.1,3.05,6.9,3.05h9.18l1.38-7.81h-9.34c-0.698,0-1.3-0.263-1.71-0.744zm-18.5-25.7-15.1,0c-5.75,0-11.3,4.68-12.3,10.4-1.4,7.92-2.8,15.8-4.2,23.8h7.82l4.17-23.6c0.27-1.53,1.73-2.78,3.26-2.78h15.1c0.699,0,1.3,0.265,1.71,0.744,0.416,0.495,0.573,1.16,0.446,1.88l-4.2,23.8h7.82l4.17-23.6c0.5-2.85-0.152-5.53-1.84-7.53-2.05-1.9-4.74-3.02-6.86-3.08zm48.2-12.3c2.25,1.66,4.75,3.3,7.68,4.05,2.84,0.728,5.68,0.511,8.62-0.663-3.02,0.147-8.38,0.221-12.5-6.27-3.83-6.06-9.74-3.47-10.7-3.01-0.386,1.78-0.661,3.58-0.977,5.37,0.433-0.169,0.913-0.339,1.46-0.474,2.45-0.608,4.65-0.262,6.37,1z"/>

  <path fill="url(#color)" d="m29.9,79.2-15.1,0c-5.76,0-11.3,4.7-12.3,10.4l0.00914-0.0046c-0.0163,0.0554-0.0249,0.109-0.0335,0.154l-2.31,13.1c-0.109,0.628-0.164,1.25-0.164,1.85,0,2.14,0.686,4.11,2,5.68,1.65,1.97,4.1,3.05,6.89,3.05h13.6l1.38-7.81h-13.8c-0.7,0-1.3-0.263-1.71-0.744-0.414-0.495-0.574-1.16-0.448-1.88l2.33-13.2c0.269-1.53,1.73-2.78,3.26-2.78h15.1c0.697,0,1.3,0.265,1.71,0.744,0.413,0.495,0.571,1.16,0.446,1.88l-4.77,27c-0.27,1.53-1.74,2.78-3.26,2.78h-20.5l-1.38,7.81h20.7c5.76,0,11.3-4.68,12.3-10.4l4.77-27c0.501-2.85-0.148-5.53-1.83-7.53-1.65-1.97-4.1-3.05-6.9-3.05zm39.9,0-15.1,0c-5.76,0-11.3,4.68-12.3,10.4l0.0076-0.0046c-0.0158,0.0554-0.0254,0.109-0.0335,0.154l-2.3,13.1c-0.111,0.629-0.166,1.25-0.166,1.85,0,2.14,0.686,4.11,2,5.68,1.65,1.97,4.1,3.05,6.89,3.05h15.1c5.76,0,11.3-4.68,12.3-10.4,0-0.002,2.33-13.2,2.33-13.2,0.501-2.85-0.15-5.53-1.84-7.53-1.65-1.97-4.1-3.05-6.89-3.05zm0.934,10.4-2.33,13.2c-0.269,1.53-1.73,2.78-3.26,2.78h-15.1c-0.698,0-1.3-0.263-1.71-0.744-0.414-0.496-0.572-1.16-0.445-1.88l2.33-13.2c0.271-1.53,1.73-2.78,3.26-2.78h15.1c0.697,0,1.3,0.265,1.71,0.744,0.414,0.495,0.572,1.16,0.445,1.88zm17.5,15.2c-0.413-0.496-0.572-1.16-0.448-1.88l7.53-42.7h-7.82l-7.5,42.5c-0.503,2.85,0.149,5.52,1.84,7.53,1.65,1.97,4.1,3.05,6.89,3.05h9.18l1.38-7.81h-9.34c-0.698,0-1.3-0.263-1.71-0.744zm163-36.2c-3.25-2.46-5.75-2.32-7.99-1.15l-1.17,6.37c2.2-1.3,4.19-1.58,6.43-0.886,3.1,0.966,6.43,1.83,9.84,1.61,3.3-0.212,6.18-1.41,8.75-3.65-3.1,1.19-8.7,3.11-15.9-2.29zm-142,2.1-7.52,42.7c2.62,0.001,5.41,0.00057,7.82,0,0,0,4.53-25.7,4.66-26.4h18.4c0.979-3.08,2.9-5.79,5.38-7.81h-22.4c0.164-0.924,1.46-8.28,1.46-8.28,0.27-1.53,1.74-2.78,3.26-2.78h20.1c0.458-2.58,0.944-5.36,1.38-7.8h-20.2c-5.76,0-11.3,4.68-12.3,10.4z"/>

 </g>

</svg>

